<svg width="1207" height="250" xmlns="http://www.w3.org/2000/svg">

 <g>
  <title>background</title>
  <rect fill="none" id="canvas_background" height="252" width="1209" y="-1" x="-1"/>
 </g>
 <g>
  <title>Layer 1</title>
  <g id="svg_1">
   <g id="svg_2">
    <path id="svg_3" stroke-width="1.109" d="m101.162262,17.222571a87.483377,87.094444 0 0 0 -87.483377,87.094444a87.483377,87.094444 0 0 0 87.483377,87.094444a87.483377,87.094444 0 0 0 87.483377,-87.094444a87.483377,87.094444 0 0 0 -87.483377,-87.094444zm0.140558,21.930772a66.306394,64.515187 0 0 1 66.306394,64.515187a66.306394,64.515187 0 0 1 -66.306394,64.515187a66.306394,64.515187 0 0 1 -66.306394,-64.515187a66.306394,64.515187 0 0 1 66.306394,-64.515187z"/>
    <g id="svg_4" fill-opacity="0.99248">
     <path id="svg_5" stroke-width="0.90238" d="m159.944,145.976723c-1.435717,-0.015584 -2.877308,0.518921 -3.989337,1.607112l-14.663553,14.348703c-2.224139,2.176382 -2.262662,5.718897 -0.086298,7.942956l14.346851,14.661436l22.485596,-22.41707l-14.13942,-14.450037c-1.088191,-1.112056 -2.517981,-1.677834 -3.953619,-1.693418l-0.00022,0.000317zm25.495723,23.70822l-22.485596,22.41707l40.710925,41.605205c2.176382,2.224139 5.718897,2.262662 7.942956,0.086301l14.663024,-14.348173c2.224139,-2.176382 2.262662,-5.718897 0.086298,-7.942956l-40.917297,-41.816869l-0.00031,-0.000577z"/>
     <g id="svg_6" stroke-opacity="0.99608" stroke="#000">
      <circle id="svg_7" stroke-width="0.3969" r="7.938" cy="61.93" cx="130.766672"/>
      <g id="svg_8" stroke-width="0.26458">
       <circle id="svg_9" r="7.9375" cy="112.49" cx="53.496672"/>
       <circle id="svg_10" r="7.9375" cy="145.5" cx="79.033672"/>
       <circle id="svg_11" r="10.583" cy="99.31" cx="150.336672"/>
       <circle id="svg_12" r="5.2917" cy="52.943" cx="89.205672"/>
       <circle id="svg_13" r="10.583" cy="145.75" cx="125.706672"/>
      </g>
     </g>
    </g>
    <g id="svg_14" stroke-width="2.5" stroke-opacity="0.99608" stroke="#000">
     <path id="svg_15" d="m90.183672,55.8l-15.559,25.573"/>
     <path id="svg_16" d="m55.258672,111.89l42.333,0"/>
     <path id="svg_17" d="m68.487672,75.9l37.042,37.042"/>
     <path id="svg_18" d="m131.456672,62.15c-28.015,46.726 -28.015,46.726 -28.015,46.726"/>
     <path id="svg_19" d="m155.196672,93.9c-25.245,43.392 -25.245,43.392 -25.245,43.392"/>
     <path id="svg_20" d="m52.612672,109.86c30.692,37.923 30.692,37.923 30.692,37.923"/>
     <path id="svg_21" d="m99.706672,112.42l26.458,31.75"/>
    </g>
   </g>
   <ellipse id="svg_22" stroke-width="1.1247" stroke="#f00" fill="#f00" ry="14.552" rx="15.214" cy="110.1" cx="99.666672"/>
   <g id="svg_23" stroke-opacity="0.99608" stroke="#000">
    <circle id="svg_24" stroke-width="2" r="7.9375" cy="55.4" cx="89.707672"/>
    <circle id="svg_25" stroke-width="2" fill-opacity="0.99606" r="7.9375" cy="81.47" cx="74.372672"/>
    <path id="svg_26" stroke-width="2.5" d="m78.541672,145.23l42.333,0"/>
   </g>
  </g>
  <text stroke="#000" transform="matrix(7.925088514304519,0,0,8.515804187956675,-2682.7439902095207,-713.368963094665) " xml:space="preserve" text-anchor="start" font-family="Arvo, sans-serif" font-size="24" id="svg_27" y="106.903941" x="368.28401" stroke-width="0" fill="#000000">NetTracer</text>
 </g>
</svg>